<svg width="23" height="23" viewBox="0 0 23 23" fill="none" xmlns="http://www.w3.org/2000/svg">
<path d="M4.79167 21.0833C4.26458 21.0833 3.81353 20.8958 3.4385 20.5208C3.06347 20.1458 2.87564 19.6944 2.875 19.1667V5.74999C2.875 5.22291 3.06283 4.77185 3.4385 4.39682C3.81417 4.0218 4.26522 3.83396 4.79167 3.83332H5.75V1.91666H7.66667V3.83332H15.3333V1.91666H17.25V3.83332H18.2083C18.7354 3.83332 19.1868 4.02116 19.5625 4.39682C19.9381 4.77249 20.1256 5.22355 20.125 5.74999V19.1667C20.125 19.6937 19.9375 20.1451 19.5625 20.5208C19.1874 20.8964 18.7361 21.084 18.2083 21.0833H4.79167ZM4.79167 19.1667H18.2083V9.58332H4.79167V19.1667Z" fill="#4E42F0"/>
</svg>