<svg width="23" height="23" viewBox="0 0 23 23" fill="none" xmlns="http://www.w3.org/2000/svg">
<path d="M9.27667 12.7669L10.5982 14.2772C10.6266 14.3094 10.6619 14.3348 10.7014 14.3515C10.7409 14.3682 10.7837 14.3759 10.8266 14.3739C10.8694 14.3718 10.9113 14.3602 10.9491 14.3398C10.9868 14.3195 11.0196 14.2909 11.0448 14.2562L13.7281 10.5417" stroke="#4E42F0" stroke-width="1.875" stroke-linecap="round" stroke-linejoin="round"/>
<path d="M5.87744 20.125C4.74852 20.125 3.83331 19.1858 3.83331 18.0262V9.59099C3.83331 8.9537 4.11602 8.34995 4.59998 7.95224L10.2225 3.33499C10.5818 3.03751 11.0336 2.87473 11.5 2.87473C11.9664 2.87473 12.4182 3.03751 12.7774 3.33499L18.399 7.95224C18.8839 8.34995 19.1666 8.9537 19.1666 9.59099V18.0262C19.1666 19.1858 18.2514 20.125 17.1225 20.125H5.87744Z" stroke="#4E42F0" stroke-width="1.875" stroke-linecap="round" stroke-linejoin="round"/>
</svg>